<svg fill="none" xmlns="http://www.w3.org/2000/svg" viewBox="0 0 14 14" class="design-iconfont">
  <g clip-path="url(#rd3ifdcwq__clip0_95_2602)" fill="#41B883">
    <path d="M7.76917 1.31287C8.11683 1.31287 8.4505 1.45053 8.69706 1.69709L11.4278 4.42787C11.6744 4.67442 11.8128 5.00809 11.8128 5.35575V10.9371C11.8128 11.4012 11.6285 11.8463 11.3003 12.1745C10.9721 12.5027 10.527 12.6871 10.0628 12.6871H3.93628C3.47215 12.6871 3.02703 12.5027 2.69884 12.1745C2.37065 11.8463 2.18628 11.4012 2.18628 10.9371V3.06287C2.18628 2.59874 2.37065 2.15362 2.69884 1.82543C3.02703 1.49724 3.47215 1.31287 3.93628 1.31287H7.76995H7.76917ZM7.77461 2.29676H3.93706C3.73622 2.29673 3.54341 2.37565 3.40024 2.5165C3.25706 2.65735 3.17499 2.84883 3.17172 3.04964V10.9379C3.17172 11.3563 3.50772 11.6962 3.92461 11.7032H10.0621C10.263 11.7034 10.456 11.6246 10.5994 11.4837C10.7427 11.3429 10.8249 11.1513 10.8282 10.9503V5.35575C10.828 5.27104 10.7951 5.18967 10.7364 5.12864L8.00095 2.3932C7.94105 2.33311 7.86021 2.29854 7.77539 2.29676H7.77461ZM7.38183 9.13342C7.50892 9.13848 7.62912 9.19252 7.71725 9.28422C7.80538 9.37593 7.8546 9.49818 7.8546 9.62537C7.8546 9.75255 7.80538 9.87481 7.71725 9.96651C7.62912 10.0582 7.50892 10.1123 7.38183 10.1173H4.8665C4.73593 10.1173 4.6107 10.0654 4.51837 9.97311C4.42604 9.88078 4.37417 9.75555 4.37417 9.62498C4.37417 9.4944 4.42604 9.36918 4.51837 9.27685C4.6107 9.18451 4.73593 9.13264 4.8665 9.13264H7.38106L7.38183 9.13342Z"/>
    <path d="M7.71725 6.95088C7.62912 6.85918 7.50892 6.80514 7.38183 6.80008L7.38106 6.7993H4.8665C4.73593 6.7993 4.6107 6.85118 4.51837 6.94351C4.42604 7.03584 4.37417 7.16106 4.37417 7.29164C4.37417 7.42221 4.42604 7.54744 4.51837 7.63977C4.6107 7.7321 4.73593 7.78397 4.8665 7.78397H7.38183C7.50892 7.77892 7.62912 7.72488 7.71725 7.63317C7.80538 7.54147 7.8546 7.41921 7.8546 7.29203C7.8546 7.16484 7.80538 7.04259 7.71725 6.95088Z"/>
  </g>
  <defs>
    <clipPath id="rd3ifdcwq__clip0_95_2602">
      <path fill="#fff" d="M0 0H14V14H0z"/>
    </clipPath>
  </defs>
</svg>
